<?xml version="1.0" encoding="UTF-8"?>
<svg version="1.1" xmlns="http://www.w3.org/2000/svg" width="500" height="500">
<path d="M0 0 C165 0 330 0 500 0 C500 165 500 330 500 500 C335 500 170 500 0 500 C0 335 0 170 0 0 Z " fill="#FEFEFE" transform="translate(0,0)"/>
<path d="M0 0 C0.85726181 0.34441132 1.71452362 0.68882263 2.59776306 1.04367065 C11.63582819 4.73810193 20.40330867 8.9521464 29.15209961 13.27978516 C31.81969792 14.59915753 34.49235462 15.90780707 37.16601562 17.21484375 C38.90784994 18.06970587 40.64939708 18.92515343 42.390625 19.78125 C43.16793472 20.16266144 43.94524445 20.54407288 44.74610901 20.93704224 C45.87930824 21.49825272 45.87930824 21.49825272 47.03540039 22.07080078 C47.79930588 22.44543457 48.56321136 22.82006836 49.3502655 23.20605469 C51.73046875 24.4609375 51.73046875 24.4609375 54.24311829 26.06152344 C61.97430738 30.85486334 68.41244384 31.30075485 77.390625 31.1953125 C78.78911368 31.20151029 80.18759208 31.21062664 81.58604431 31.22247314 C85.24703838 31.24702867 88.90711298 31.23808215 92.56811523 31.21990967 C99.09225543 31.19359976 105.61654898 31.22699947 112.140625 31.2578125 C112.83576202 31.26028236 113.53089905 31.26275223 114.24710083 31.26529694 C124.85905707 31.3108657 135.24281413 31.8000878 145.73046875 33.4609375 C146.65964111 33.60692383 147.58881348 33.75291016 148.54614258 33.90332031 C150.74860036 34.28674686 152.92365533 34.7248219 155.10546875 35.2109375 C155.87528076 35.37867676 156.64509277 35.54641602 157.43823242 35.71923828 C176.71877408 40.07033763 195.14253127 46.21429053 211.72892761 57.1544342 C213.016021 57.99458269 214.31505098 58.81686561 215.62788391 59.61619568 C220.98644605 62.94437391 226.51342685 66.62153746 228.49627686 72.87683105 C229.45072348 78.5765468 229.33806294 84.24417817 229.0612793 90.00024414 C228.91668376 93.05054498 228.87675324 96.08915578 228.85351562 99.14257812 C228.81197028 101.08347057 228.7646551 103.02425005 228.7109375 104.96484375 C228.69282516 105.87416153 228.67471283 106.78347931 228.65605164 107.72035217 C228.53057317 110.07801901 228.36757426 112.18765091 227.73046875 114.4609375 C224.16232441 117.54206078 219.87648577 118.43999851 215.35546875 119.5234375 C213.45667969 120.00490234 213.45667969 120.00490234 211.51953125 120.49609375 C201.90493024 122.56419624 192.33891893 123.59044363 182.5234375 123.69921875 C181.73827759 123.70814651 180.95311768 123.71707428 180.14416504 123.72627258 C176.91896558 123.755581 173.69433256 123.775682 170.46899414 123.76635742 C160.84980337 123.7557689 152.96279421 123.77321982 144.73046875 129.4609375 C148.50761012 130.32418424 152.08683651 130.63331475 155.95703125 130.7421875 C157.15457031 130.77957031 158.35210937 130.81695312 159.5859375 130.85546875 C160.82988281 130.89027344 162.07382812 130.92507813 163.35546875 130.9609375 C171.85046575 131.2031391 180.27658418 131.56625462 188.73046875 132.4609375 C188.40046875 133.1209375 188.07046875 133.7809375 187.73046875 134.4609375 C144.64124059 136.42168191 101.62722518 136.7499885 58.50102534 136.69977472 C49.07725538 136.68910811 39.65349337 136.68945161 30.22971853 136.68993226 C13.41965708 136.69042713 -3.39038498 136.68141969 -20.20043945 136.66674805 C-36.4484899 136.65257475 -52.69652337 136.64558186 -68.94458008 136.64624023 C-70.45601396 136.64630017 -70.45601396 136.64630017 -71.99798187 136.64636131 C-73.00402539 136.64640167 -74.01006892 136.64644202 -75.04659861 136.6464836 C-93.69466316 136.64717412 -112.34272064 136.64129229 -130.99078288 136.63233038 C-137.54016782 136.62932954 -144.08955145 136.62825281 -150.638937 136.62779808 C-158.59974442 136.62711432 -166.56053985 136.62262483 -174.52134218 136.61346527 C-178.5719849 136.60887254 -182.62261233 136.60579256 -186.67325783 136.60705948 C-190.38799566 136.60816507 -194.10269983 136.60457288 -197.81743065 136.59741095 C-199.77775471 136.5947769 -201.73808347 136.59693885 -203.69840783 136.599343 C-210.92263789 136.57984174 -218.06930278 136.27033573 -225.27111894 135.69503766 C-229.06217435 135.39905212 -232.83576499 135.25447619 -236.63671875 135.14453125 C-237.32718292 135.12375015 -238.01764709 135.10296906 -238.72903442 135.08155823 C-240.8674644 135.01780279 -243.00598133 134.9580173 -245.14453125 134.8984375 C-246.62240371 134.85508528 -248.10026838 134.81146678 -249.578125 134.76757812 C-253.14184304 134.66230976 -256.7056513 134.56059284 -260.26953125 134.4609375 C-260.26953125 134.1309375 -260.26953125 133.8009375 -260.26953125 133.4609375 C-245.30310534 131.44585009 -230.35630235 130.87413564 -215.26953125 130.4609375 C-215.89859375 130.14382813 -216.52765625 129.82671875 -217.17578125 129.5 C-222.26197893 126.72710307 -225.73720451 124.20742504 -229.10546875 119.453125 C-233.61966656 113.40169659 -238.98617215 111.24549359 -245.89453125 108.5859375 C-259.92417011 102.92829759 -259.92417011 102.92829759 -264.26953125 99.4609375 C-265.14453125 97.2109375 -265.14453125 97.2109375 -265.26953125 95.4609375 C-263.28953125 94.1409375 -261.30953125 92.8209375 -259.26953125 91.4609375 C-259.86746346 87.66950373 -260.98607738 84.72657363 -262.76953125 81.3359375 C-267.09765027 73.05715169 -267.62355871 64.42084401 -265.14453125 55.3359375 C-263.51974823 50.50891223 -261.03100632 46.23801345 -258.37890625 41.90625 C-257.07957638 39.58127611 -257.07957638 39.58127611 -257.47265625 37.328125 C-258.31772479 35.18976926 -258.31772479 35.18976926 -260.26953125 32.4609375 C-260.82669071 26.2207515 -260.82669071 26.2207515 -259.05932617 23.81054688 C-256.80442489 22.11022028 -255.10531147 21.80188918 -252.3203125 21.3671875 C-251.33756348 21.21121094 -250.35481445 21.05523437 -249.34228516 20.89453125 C-248.32827637 20.75144531 -247.31426758 20.60835937 -246.26953125 20.4609375 C-244.85873291 20.26177734 -244.85873291 20.26177734 -243.41943359 20.05859375 C-240.43486967 19.66276028 -237.44779517 19.30672562 -234.45703125 18.9609375 C-232.77649658 18.75670166 -232.77649658 18.75670166 -231.06201172 18.54833984 C-225.08499864 17.85966785 -219.18898161 17.38221094 -213.171875 17.28125 C-193.79819062 16.84874318 -178.53834162 11.92030589 -160.70947266 4.91885376 C-149.80237567 0.66689612 -138.55163567 -2.44812644 -127.26953125 -5.5390625 C-126.35300781 -5.79655273 -125.43648437 -6.05404297 -124.4921875 -6.31933594 C-84.63719033 -17.45356973 -38.48500419 -15.48890644 0 0 Z " fill="#5876FF" transform="translate(272.26953125,159.5390625)"/>
<path d="M0 0 C11.41588336 -0.02342215 22.83176078 -0.04106436 34.2476635 -0.05181217 C39.55151101 -0.05697688 44.8553418 -0.06395413 50.15917969 -0.07543945 C90.81689011 -0.16099019 90.81689011 -0.16099019 106.28125 0.421875 C107.25150116 0.4582457 108.22175232 0.49461639 109.22140503 0.53208923 C143.22193621 2.07746351 177.76868052 12.8658525 204 35 C192.05120761 19.29587286 173.3618459 10.90054823 155 5 C160.32312405 3.23777857 164.8281198 5.39149242 170 7 C170.66402832 7.20012695 171.32805664 7.40025391 172.01220703 7.60644531 C190.48621502 13.20870188 207.03717165 21.43687734 222.1875 33.5 C222.7652417 33.93868408 223.3429834 34.37736816 223.93823242 34.8293457 C227.00391557 37.36425943 227.95421767 38.632952 228.453125 42.6328125 C227.92855408 46.53091709 226.85870112 50.14129888 224 53 C221.92802846 53.23929865 219.84933321 53.42079179 217.76953125 53.578125 C216.49142578 53.68769531 215.21332031 53.79726562 213.89648438 53.91015625 C211.86080123 54.08279196 209.82555148 54.24905887 207.7878418 54.39599609 C199.0088013 54.72017691 199.0088013 54.72017691 191.25390625 58.27734375 C189.08760352 60.89417738 187.52492323 63.22443406 186.125 66.3125 C185.71507812 67.19550781 185.30515625 68.07851563 184.8828125 68.98828125 C184.44582031 69.98408203 184.44582031 69.98408203 184 71 C182.68 70.67 181.36 70.34 180 70 C179.86613795 62.77144908 182.61170505 59.45734235 187.3828125 54.19921875 C194.34213943 48.35130672 201.66290843 48.33428422 210.4375 47.8125 C212.25024414 47.6897168 212.25024414 47.6897168 214.09960938 47.56445312 C217.06585945 47.36513988 220.03236868 47.17733834 223 47 C218.55260587 46.92550749 214.1055481 46.87123743 209.65771484 46.83520508 C208.14658273 46.82017457 206.63549382 46.79974436 205.12451172 46.77368164 C202.94487813 46.73704311 200.76582425 46.72021662 198.5859375 46.70703125 C197.2767334 46.6913208 195.9675293 46.67561035 194.61865234 46.65942383 C189.24833356 47.16486133 186.09546285 48.90453715 182.3125 52.6875 C177.99657885 58.31211983 176.56310936 64.0097497 177 71 C183.92204795 75.5656061 190.41926043 75.58692553 198.46484375 75.82421875 C202 76 202 76 203 77 C203.04063832 78.66617115 203.042721 80.33388095 203 82 C201.39717783 82.31932434 199.7926221 82.62994514 198.1875 82.9375 C197.29417969 83.11152344 196.40085937 83.28554688 195.48046875 83.46484375 C183.77499758 85.2646749 172.12331321 85.11771506 160.3125 85.0625 C158.43554807 85.05747491 156.55859484 85.05291379 154.68164062 85.04882812 C150.12106113 85.03790258 145.56054521 85.02069357 141 85 C141.31127516 83.41642541 141.62407289 81.83315007 141.9375 80.25 C142.11152344 79.36828125 142.28554688 78.4865625 142.46484375 77.578125 C142.78630711 76.02946938 143.13887448 74.48612138 143.55151367 72.95922852 C146.33472247 60.80068163 144.70178489 47.01088919 138.45703125 36.37109375 C132.14181583 26.67427557 123.19102176 18.72177247 111.8125 15.6875 C99.17665131 13.44990179 87.43928638 14.84126708 76.3671875 21.609375 C74.09365085 23.28948005 72.04657655 25.05146304 70 27 C69.36449219 27.58394531 68.72898437 28.16789062 68.07421875 28.76953125 C58.87310977 38.12826094 57.28155294 50.53398507 56 63 C49.4 63 42.8 63 36 63 C32.6932947 54.18211921 32.6932947 54.18211921 31.38671875 50.34375 C31.10763672 49.54839844 30.82855469 48.75304687 30.54101562 47.93359375 C29.973277 46.31482413 29.41591555 44.69237655 28.86914062 43.06640625 C26.27281132 35.7682961 22.44013429 29.23584484 16 24.6875 C15.32710938 24.20539063 14.65421875 23.72328125 13.9609375 23.2265625 C11.83631371 21.82683404 11.83631371 21.82683404 8.625 20.5625 C6 19 6 19 4.875 15.9375 C4.75125 15.33421875 4.6275 14.7309375 4.5 14.109375 C3.67604155 10.6333003 2.18389065 7.4236518 0.8046875 4.13671875 C0 2 0 2 0 0 Z " fill="#FBFCFF" transform="translate(267,194)"/>
<path d="M0 0 C1.0017627 0.12310547 2.00352539 0.24621094 3.03564453 0.37304688 C7.98245882 0.98843272 12.92611664 1.62765815 17.86328125 2.31640625 C18.63969971 2.42412354 19.41611816 2.53184082 20.21606445 2.64282227 C22 3 22 3 23 4 C23.10061091 6.37323378 23.12964846 8.74963908 23.125 11.125 C23.12757813 12.42695313 23.13015625 13.72890625 23.1328125 15.0703125 C23.00647765 18.80833764 22.73720662 22.33263038 22 26 C19.33130033 27.33434983 16.83352389 27.4837335 13.875 27.875 C4.80200633 29.21287979 4.80200633 29.21287979 -3.0625 33.6875 C-5.26904579 39.13031294 -2.93396182 44.65061703 -1 49.875 C2.61613304 58.09442884 8.72398644 66.08074134 17.01856995 70.01733398 C20.88394786 71.29134526 24.62453656 71.68153924 28.66381836 72.0625 C29.50069404 72.14556396 30.33756971 72.22862793 31.19980526 72.31420898 C39.15199397 73.07262758 47.11024543 73.53188459 55.08917427 73.89111328 C57.59528599 74.00412056 60.100973 74.12433827 62.60667419 74.24609375 C68.82080262 74.54669604 75.03544697 74.83595847 81.25012207 75.125 C86.53689498 75.37128795 91.82340235 75.62233912 97.10966301 75.87939453 C99.54065987 75.99577532 101.97189154 76.10550353 104.4032135 76.21484375 C112.25753181 76.58417456 120.07676249 77.12063191 127.89819336 77.9375 C128.65239594 78.01218506 129.40659853 78.08687012 130.18365574 78.16381836 C133.82546072 78.57086203 136.86252646 79.03893079 140 81 C139.67 81.66 139.34 82.32 139 83 C133.55154459 84.39779454 127.91131544 84.16123673 122.32421875 84.16796875 C121.26737381 84.17206757 120.21052887 84.17616638 119.12165833 84.1803894 C115.64357317 84.19002456 112.16559672 84.18989922 108.6875 84.1875 C107.4902832 84.18789276 106.29306641 84.18828552 105.05957031 84.18869019 C82.87741831 84.18003679 60.77422761 83.41083424 38.62043762 82.37121582 C26.78724259 81.83017252 14.94630393 81.57194989 3.10351562 81.34204102 C2.35356323 81.32573639 1.60361084 81.30943176 0.83093262 81.29263306 C-1.17122666 81.24916115 -3.17350273 81.21116467 -5.17578125 81.17358398 C-8 81 -8 81 -9 80 C-9.2763585 77.75308523 -9.52018861 75.50215158 -9.75 73.25 C-11.07615287 62.22734496 -14.52265432 52.36574319 -22 44 C-22.75023438 43.09507812 -22.75023438 43.09507812 -23.515625 42.171875 C-29.09167053 35.94619309 -36.54174182 32.07613129 -44.625 30.125 C-45.73875 30.08375 -46.8525 30.0425 -48 30 C-48.721875 29.93941406 -49.44375 29.87882812 -50.1875 29.81640625 C-61.12890938 29.23777402 -71.00572838 32.95092944 -79.5546875 39.66796875 C-89.10527521 48.77611709 -92.21198637 60.22874462 -93 73 C-100.87059984 69.43497994 -105.42349247 62.62594167 -109 55 C-111.77905885 46.66282345 -109.23580057 40.02091942 -106.19140625 32.13671875 C-103.99942014 26.36568648 -103.39478437 21.16929484 -104 15 C-104.97004121 12.98529902 -105.96244882 10.98077953 -107 9 C-106.43481445 6.93676758 -106.43481445 6.93676758 -105 5 C-95.86141213 1.38550427 -85.05882476 0.89087156 -75.3125 -0.1875 C-74.54008972 -0.27404846 -73.76767944 -0.36059692 -72.97186279 -0.44976807 C-48.69123823 -3.10983393 -24.24933272 -3.05742739 0 0 Z " fill="#FBFBFF" transform="translate(124,181)"/>
<path d="M0 0 C3.57838088 0.01066654 7.15625403 0.0000872 10.73461914 -0.01269531 C23.93514402 -0.02081428 36.83036621 0.5206271 49.91625977 2.26074219 C50.94807373 2.38642578 51.9798877 2.51210937 53.04296875 2.64160156 C80.93540053 6.12011533 80.93540053 6.12011533 85.91625977 12.26074219 C86.25683594 14.16186523 86.25683594 14.16186523 86.20922852 16.27246094 C86.1979895 17.29666138 86.1979895 17.29666138 86.18652344 18.34155273 C86.15921143 19.20176025 86.13189941 20.06196777 86.10375977 20.94824219 C86.06927789 22.43104727 86.03590119 23.91387831 86.00341797 25.39672852 C85.97465576 26.67185303 85.94589355 27.94697754 85.91625977 29.26074219 C74.43187591 29.45505731 63.21333869 28.92562224 51.79125977 27.76074219 C41.11363523 26.67722388 30.65637796 26.05003687 19.91625977 26.26074219 C20.824646 26.3609668 21.73303223 26.46119141 22.66894531 26.56445312 C38.95950438 28.37076064 55.23937615 30.22290273 71.47875977 32.44824219 C73.32183716 32.69815918 73.32183716 32.69815918 75.20214844 32.953125 C76.88787964 33.18854004 76.88787964 33.18854004 78.60766602 33.42871094 C79.58936768 33.56559326 80.57106934 33.70247559 81.58251953 33.84350586 C83.91625977 34.26074219 83.91625977 34.26074219 85.91625977 35.26074219 C85.94315193 36.73981111 85.96260598 38.21901702 85.97875977 39.69824219 C85.99036133 40.52195313 86.00196289 41.34566406 86.01391602 42.19433594 C85.91625977 44.26074219 85.91625977 44.26074219 84.91625977 45.26074219 C82.35677546 45.30116451 79.82713545 45.2758725 77.26977539 45.20654297 C76.46788284 45.18878815 75.6659903 45.17103333 74.83979797 45.15274048 C72.16722508 45.09221629 69.49489694 45.02425716 66.82250977 44.95605469 C64.95895221 44.91182006 63.09538593 44.86795125 61.23181152 44.82443237 C57.30736955 44.73168903 53.38303356 44.63545072 49.45874023 44.53662109 C44.4754649 44.41125694 39.49205669 44.29285895 34.50855255 44.1769886 C30.64754478 44.08666977 26.78661629 43.99326583 22.92570496 43.89892197 C21.09207463 43.85432967 19.25842617 43.81047618 17.42475891 43.76742935 C11.58740107 43.62899754 5.75183895 43.46036324 -0.08374023 43.26074219 C-1.30281728 43.22246024 -1.30281728 43.22246024 -2.54652214 43.18340492 C-4.9021747 43.10426244 -7.25620259 43.00587489 -9.61083984 42.90112305 C-10.66297165 42.86833976 -10.66297165 42.86833976 -11.73635864 42.83489418 C-15.6218124 42.63682988 -18.05810338 42.2154523 -20.86889648 39.44433594 C-22.08398438 37.65087891 -22.08398438 37.65087891 -23.14624023 35.69824219 C-23.56703857 35.0358252 -23.98783691 34.3734082 -24.42138672 33.69091797 C-25.72378972 31.58405326 -26.91301277 29.44321544 -28.08374023 27.26074219 C-28.67735352 26.1738208 -28.67735352 26.1738208 -29.28295898 25.06494141 C-31.72217958 20.53597326 -33.97155713 15.95095329 -36.08374023 11.26074219 C-36.50526367 10.36613281 -36.92678711 9.47152344 -37.36108398 8.54980469 C-38.18467405 5.94102752 -37.83680651 4.82582149 -37.08374023 2.26074219 C-24.78899284 -0.22053312 -12.48821856 -0.04421511 0 0 Z " fill="#FDFDFF" transform="translate(187.083740234375,209.7392578125)"/>
<path d="M0 0 C6.86323036 0.38349457 13.55900389 1.19642052 20.3125 2.4375 C31.10524436 4.40384276 41.81420397 5.98648943 52.77734375 6.51953125 C54.05596283 6.58236549 54.05596283 6.58236549 55.3604126 6.64646912 C67.31673324 7.19548113 79.28389265 7.35941768 91.25 7.5625 C93.66406774 7.60582859 96.07813031 7.64944665 98.4921875 7.69335938 C104.32806972 7.79889953 110.16400493 7.90090678 116 8 C118.36915065 12.43763354 120.41460293 16.48761756 121.25 21.5 C121.39953125 22.3559375 121.5490625 23.211875 121.703125 24.09375 C121.80109375 24.7228125 121.8990625 25.351875 122 26 C121.40574219 25.91435791 120.81148438 25.82871582 120.19921875 25.74047852 C117.4662549 25.34705711 114.73312912 24.95477154 112 24.5625 C111.06542969 24.42779297 110.13085938 24.29308594 109.16796875 24.15429688 C106.44604667 23.76409126 103.72334911 23.38010957 101 23 C99.93918213 22.84990479 99.93918213 22.84990479 98.85693359 22.69677734 C93.78180586 22.01477938 88.73615836 21.70882257 83.625 21.5 C82.68906006 21.46011963 81.75312012 21.42023926 80.78881836 21.37915039 C63.20121794 20.68206015 45.59662766 20.38277619 28 20 C27.54359131 19.03811768 27.08718262 18.07623535 26.61694336 17.08520508 C25.29009642 14.00011253 25.29009642 14.00011253 23.12890625 12.63671875 C20.63487604 11.89079779 18.53930995 11.76933272 15.9375 11.8125 C15.08027344 11.81894531 14.22304687 11.82539063 13.33984375 11.83203125 C10.84522032 11.91409966 10.84522032 11.91409966 8 13 C7.25740651 15.31029085 6.588562 17.645752 6 20 C5 21 5 21 1.9375 21.0625 C0.968125 21.041875 -0.00125 21.02125 -1 21 C-1.09733092 13.90565767 -1.10087193 7.01805857 0 0 Z " fill="#FCFDFF" transform="translate(149,186)"/>
<path d="M0 0 C9.0780476 0.04373432 18.12387356 0.29954616 27.19291687 0.74058533 C28.57761507 0.80569493 29.96232506 0.87055435 31.3470459 0.93518066 C34.2201769 1.07001891 37.09318182 1.20721169 39.96611023 1.34629822 C43.61318291 1.52276125 47.26047178 1.69416143 50.90786266 1.86390591 C53.75727393 1.99691853 56.60657651 2.13215152 59.4558506 2.26806831 C61.44296382 2.36261385 63.43014494 2.45572895 65.41732788 2.54879761 C71.01213243 2.82121016 76.5911902 3.13370685 82.1714325 3.62388611 C88.92336436 4.21446056 95.68017028 4.51252159 102.45072937 4.80308533 C103.81664295 4.86383608 105.18254336 4.92488369 106.5484314 4.98620605 C112.26527397 5.24225976 117.98237083 5.49244397 123.69950867 5.74180603 C127.9083898 5.92579975 132.11712374 6.11289362 136.32572937 6.30308533 C137.02054476 6.33446594 137.71536015 6.36584656 138.43123055 6.3981781 C150.16957267 6.93375411 161.89305244 7.63258658 173.61621094 8.43283081 C185.11907997 9.21472883 196.62820086 9.71510439 208.14994812 10.11949158 C209.13994812 12.09949158 209.13994812 12.09949158 210.14994812 14.11949158 C188.25700101 14.31226775 166.39447018 14.08787508 144.50932312 13.46324158 C143.35192123 13.43027985 142.19451935 13.39731812 141.00204468 13.36335754 C132.6344477 13.12304614 124.26718044 12.87213358 115.89994812 12.61949158 C79.32973865 11.45150643 79.32973865 11.45150643 42.74724579 10.85513306 C41.25543574 10.84402818 39.76365223 10.82814643 38.27194977 10.80706787 C36.27211459 10.7807853 34.27202431 10.77661585 32.27201843 10.77378845 C31.17512695 10.76762512 30.07823547 10.76146179 28.94810486 10.75511169 C25.78485593 11.16703439 24.52942071 12.07147834 22.14994812 14.11949158 C13.26280905 16.18736941 3.23798683 15.21537944 -5.85005188 15.11949158 C-5.54262285 12.80631197 -5.22897486 10.49395806 -4.91255188 8.18199158 C-4.73852844 6.89421814 -4.564505 5.6064447 -4.38520813 4.27964783 C-3.68664681 0.15456674 -3.68664681 0.15456674 0 0 Z " fill="#F6F8FF" transform="translate(117.85005187988281,262.88050842285156)"/>
<path d="M0 0 C0.84971534 -0.00765109 1.69943068 -0.01530219 2.57489496 -0.02318513 C5.40919889 -0.04374794 8.24268512 -0.03588029 11.07704163 -0.02792358 C13.11433662 -0.03662196 15.15162506 -0.04698965 17.18890381 -0.05889893 C22.71371752 -0.0856561 28.23825741 -0.08683899 33.76312327 -0.08177233 C38.37799737 -0.07963152 42.99281622 -0.08940307 47.60767847 -0.09898317 C58.49562028 -0.12116523 69.38342409 -0.12205269 80.27137756 -0.10995483 C91.49881584 -0.09787152 102.72575307 -0.12250829 113.95310587 -0.16509497 C123.5983353 -0.20033341 133.24340529 -0.2123288 142.88869673 -0.20581949 C148.64691359 -0.20219474 154.40477294 -0.20745641 160.16293144 -0.23524857 C165.57797158 -0.26040738 170.99223078 -0.25651644 176.40725899 -0.23042679 C178.39219044 -0.2256966 180.37717688 -0.23116013 182.36204529 -0.24767303 C200.48890893 -0.38758085 200.48890893 -0.38758085 206.26485538 5.13741493 C207.31556702 6.52139282 207.31556702 6.52139282 207.31556702 7.52139282 C132.40556702 7.52139282 57.49556702 7.52139282 -19.68443298 7.52139282 C-12.74240648 2.31487295 -8.58696949 -0.08284407 0 0 Z " fill="#F8F9FF" transform="translate(142.68443298339844,282.4786071777344)"/>
<path d="M0 0 C26.13639555 -0.50262299 45.39589864 12.71605171 64.6875 29.125 C65.80048236 30.04360984 66.91513768 30.96019561 68.03125 31.875 C74.38609745 37.1007297 74.38609745 37.1007297 76.6875 39.125 C76.6875 39.455 76.6875 39.785 76.6875 40.125 C72.29991297 41.09206 67.98353573 41.53175422 64.00195312 39.09228516 C60.26965901 36.19687142 56.87610382 32.90958222 53.42529297 29.68945312 C46.40867302 23.37272081 38.14361423 18.65397591 29.875 14.1875 C29.18172607 13.80956299 28.48845215 13.43162598 27.77416992 13.04223633 C8.81368374 3.11918174 -13.53283604 8.64979456 -33.3125 13.125 C-33.97376892 13.27445068 -34.63503784 13.42390137 -35.31634521 13.57788086 C-44.66412325 15.6947316 -53.99386222 17.88327973 -63.3125 20.125 C-62.68682129 20.00382812 -62.06114258 19.88265625 -61.41650391 19.7578125 C-58.59053481 19.21163003 -55.7640283 18.66828076 -52.9375 18.125 C-51.46023437 17.83882812 -51.46023437 17.83882812 -49.953125 17.546875 C-49.01210937 17.36640625 -48.07109375 17.1859375 -47.1015625 17 C-46.23225098 16.83242187 -45.36293945 16.66484375 -44.46728516 16.4921875 C-42.3125 16.125 -42.3125 16.125 -40.3125 16.125 C-40.3125 20.415 -40.3125 24.705 -40.3125 29.125 C-41.53839844 28.93164062 -42.76429688 28.73828125 -44.02734375 28.5390625 C-58.08293637 26.39227471 -72.13122089 25.10807062 -86.3125 24.125 C-84.74485049 20.98970097 -81.63078195 20.6035758 -78.48046875 19.515625 C-77.78099625 19.26809982 -77.08152374 19.02057465 -76.3608551 18.76554871 C-74.07670007 17.96045455 -71.78871501 17.1670301 -69.5 16.375 C-67.93326785 15.82820747 -66.36653608 15.28141384 -64.79980469 14.73461914 C-43.38925544 7.29537467 -22.82295599 0.86124362 0 0 Z " fill="#F8FAFF" transform="translate(187.3125,151.875)"/>
<path d="M0 0 C0.921875 2.046875 0.921875 2.046875 1.75 4.75 C5.36185434 15.32561897 11.18528894 24.58550427 17.49609375 33.734375 C19 36 19 36 19 37 C8.83410066 37.97333079 1.12870028 35.92551986 -6.91015625 29.46484375 C-11.89509523 24.2759175 -15.52055918 16.42364064 -16.29296875 9.296875 C-16 7 -16 7 -13.4375 4.375 C-9.38615899 1.34129441 -5.06407619 -1.6880254 0 0 Z " fill="#FBFBFF" transform="translate(148,214)"/>
<path d="M0 0 C3.93311899 -0.06891253 7.86469815 -0.12862907 11.7980957 -0.16479492 C13.79327701 -0.18728333 15.78826213 -0.22540198 17.78320312 -0.26367188 C19.03681641 -0.27333984 20.29042969 -0.28300781 21.58203125 -0.29296875 C22.73936768 -0.3086792 23.8967041 -0.32438965 25.08911133 -0.34057617 C28 0 28 0 29.8828125 1.18554688 C31.41141343 3.6681872 31.34111624 5.41931996 31.29296875 8.32421875 C31.28330078 9.35224609 31.27363281 10.38027344 31.26367188 11.43945312 C31.23853516 12.51130859 31.21339844 13.58316406 31.1875 14.6875 C31.16719727 16.31268555 31.16719727 16.31268555 31.14648438 17.97070312 C31.11110643 20.64763405 31.06174189 23.32356838 31 26 C29.68 26 28.36 26 27 26 C27 23.03 27 20.06 27 17 C19.74 17 12.48 17 5 17 C5 19.97 5 22.94 5 26 C3.35 26 1.7 26 0 26 C0 17.42 0 8.84 0 0 Z " fill="#1E1D3D" transform="translate(162,304)"/>
<path d="M0 0 C21.68239914 -1.40187925 38.78219798 7.50320821 56 20 C55.67 21.32 55.34 22.64 55 24 C35.98828605 24.82792948 22.92662488 18.29918677 7.6875 7.6875 C6.92735596 7.15970947 6.16721191 6.63191895 5.3840332 6.08813477 C4.68366943 5.58854248 3.98330566 5.0889502 3.26171875 4.57421875 C2.63225342 4.12651123 2.00278809 3.67880371 1.35424805 3.2175293 C0.90734619 2.81574463 0.46044434 2.41395996 0 2 C0 1.34 0 0.68 0 0 Z " fill="#5A77FF" transform="translate(405,206)"/>
<path d="M0 0 C4.41731521 -0.1077394 8.83201394 -0.18720629 13.25 -0.25 C15.13138672 -0.30027344 15.13138672 -0.30027344 17.05078125 -0.3515625 C18.25605469 -0.36445313 19.46132813 -0.37734375 20.703125 -0.390625 C21.81333008 -0.41157227 22.92353516 -0.43251953 24.06738281 -0.45410156 C27 0 27 0 29.36914062 1.69921875 C31.32781341 4.4624721 31.46869021 5.84632115 31.390625 9.203125 C31.37128906 10.67265625 31.37128906 10.67265625 31.3515625 12.171875 C31.31804687 13.18765625 31.28453125 14.2034375 31.25 15.25 C31.23195313 16.28125 31.21390625 17.3125 31.1953125 18.375 C31.14822712 20.91761064 31.0824805 23.45833162 31 26 C29.68 26 28.36 26 27 26 C27 23.03 27 20.06 27 17 C19.41 17 11.82 17 4 17 C4 19.97 4 22.94 4 26 C2.68 26 1.36 26 0 26 C0 17.42 0 8.84 0 0 Z " fill="#121133" transform="translate(381,304)"/>
<path d="M0 0 C7.22972066 3.58570823 12.17398185 10.51129317 15.16796875 17.87109375 C17.73787688 27.53539617 16.80243821 36.75931302 11.828125 45.40625 C6.82338581 52.50699108 0.45604261 56.89849829 -8 59 C-16.92693624 60.1095627 -24.7111379 58.43590118 -32.1875 53.4375 C-38.01514034 48.77306133 -42.53665935 41.31670327 -44 34 C-44.97977484 23.49803842 -43.13488065 15.52977814 -36.5 7.25 C-26.05978186 -3.67535839 -13.63275314 -5.66496161 0 0 Z M-34.4921875 10.84375 C-39.67425735 18.25437839 -41.10596728 24.99097483 -40 34 C-38.0345454 43.21306842 -33.61567317 48.87014035 -26.125 54.37890625 C-20.46727766 57.76175273 -14.41461398 57.95765151 -8 57 C1.06733386 53.93144319 7.0497932 48.021503 12 40 C14.72286467 34.42461043 14.57640468 28.08615525 14 22 C13.08073923 19.7084551 13.08073923 19.7084551 12 18 C9.94999651 18.93932398 9.94999651 18.93932398 8.203125 20.42578125 C5.79751915 22.14468046 3.50783076 23.13516984 0.75 24.1875 C-0.14203125 24.53167969 -1.0340625 24.87585938 -1.953125 25.23046875 C-2.62859375 25.48441406 -3.3040625 25.73835938 -4 26 C-4 25.01 -4 24.02 -4 23 C-2.06629769 21.99267601 -0.12789694 20.99436712 1.8125 20 C2.89144531 19.443125 3.97039062 18.88625 5.08203125 18.3125 C8 17 8 17 11 17 C8.94395901 10.21506472 4.5009875 5.54284323 -1.5625 2.0625 C-14.35426202 -3.73617525 -26.04239615 0.31098683 -34.4921875 10.84375 Z " fill="#EFF1FF" transform="translate(382,223)"/>
<path d="M0 0 C7.68428962 4.49935379 13.08462659 11.13279291 16.00390625 19.52734375 C18.35721646 29.13299358 16.02421139 38.42116374 11.0625 46.8125 C7.03766047 52.51604144 1.17260457 55.87996514 -5.375 58.0625 C-14.42684869 58.88646542 -21.91778693 58.59067705 -29.375 53.0625 C-36.40239288 46.97453291 -40.24043042 39.95264654 -41.75 30.78515625 C-42.24594662 22.21457877 -39.15215478 13.69725713 -33.75 7.125 C-24.58580245 -2.14027326 -12.31603021 -5.43800103 0 0 Z M-31.375 10.0625 C-36.67272261 17.81941237 -38.2647218 24.70771079 -37.375 34.0625 C-35.2528943 42.03957204 -29.87440887 48.83249834 -23.125 53.5 C-17.65445631 56.60826346 -12.53449682 56.75675521 -6.375 56.0625 C2.24701692 53.39229505 7.69617422 47.8933397 12.28515625 40.32421875 C13.88400793 36.43197049 14.16206351 32.95898065 14.125 28.8125 C14.11533203 27.68642334 14.11533203 27.68642334 14.10546875 26.53759766 C13.8239026 17.94797752 11.04975098 12.06699649 4.8125 6.125 C-1.034901 1.48211981 -6.73266775 -0.5353096 -14.21875 -0.21484375 C-21.32832958 0.69961304 -26.66766725 4.92094788 -31.375 10.0625 Z " fill="#F0F3FF" transform="translate(85.375,223.9375)"/>
<path d="M0 0 C9.57 0 19.14 0 29 0 C29 1.32 29 2.64 29 4 C20.75 4 12.5 4 4 4 C4 6.31 4 8.62 4 11 C11.26 11 18.52 11 26 11 C26 12.32 26 13.64 26 15 C18.74 15 11.48 15 4 15 C4 17.31 4 19.62 4 22 C12.25 22 20.5 22 29 22 C29 23.32 29 24.64 29 26 C19.43 26 9.86 26 0 26 C0 17.42 0 8.84 0 0 Z " fill="#08072B" transform="translate(346,304)"/>
<path d="M0 0 C9.57 0 19.14 0 29 0 C29 1.32 29 2.64 29 4 C20.75 4 12.5 4 4 4 C4 6.31 4 8.62 4 11 C11.26 11 18.52 11 26 11 C26 12.32 26 13.64 26 15 C18.74 15 11.48 15 4 15 C4 17.31 4 19.62 4 22 C12.25 22 20.5 22 29 22 C29 23.32 29 24.64 29 26 C19.43 26 9.86 26 0 26 C0 17.42 0 8.84 0 0 Z " fill="#0A092C" transform="translate(88,304)"/>
<path d="M0 0 C0.88945312 -0.00257813 1.77890625 -0.00515625 2.6953125 -0.0078125 C7.52835771 0.0643225 11.15975096 0.23617779 15 3.5 C15.8125 6.1875 15.8125 6.1875 16 8.5 C14.68 8.5 13.36 8.5 12 8.5 C11.34 7.51 10.68 6.52 10 5.5 C7.98874964 5.06900401 7.98874964 5.06900401 5.68359375 5.171875 C4.41418945 5.17960937 4.41418945 5.17960937 3.11914062 5.1875 C2.23419922 5.208125 1.34925781 5.22875 0.4375 5.25 C-0.45130859 5.25515625 -1.34011719 5.2603125 -2.25585938 5.265625 C-6.45727079 4.94739345 -6.45727079 4.94739345 -10 6.5 C-10.09909302 8.83160055 -10.12970504 11.16629942 -10.125 13.5 C-10.12886719 15.418125 -10.12886719 15.418125 -10.1328125 17.375 C-10.35860893 20.36687244 -10.35860893 20.36687244 -9 21.5 C-7.58429877 21.58651611 -6.164405 21.60704904 -4.74609375 21.59765625 C-3.89208984 21.59443359 -3.03808594 21.59121094 -2.15820312 21.58789062 C-1.26037109 21.57951172 -0.36253906 21.57113281 0.5625 21.5625 C1.91504883 21.55573242 1.91504883 21.55573242 3.29492188 21.54882812 C5.53001314 21.53700225 7.76497437 21.5205222 10 21.5 C10.66 19.85 11.32 18.2 12 16.5 C8.04 16.5 4.08 16.5 0 16.5 C0 15.18 0 13.86 0 12.5 C2.47923801 12.47314905 4.9581884 12.45323453 7.4375 12.4375 C8.14455078 12.42912109 8.85160156 12.42074219 9.58007812 12.41210938 C11.38693559 12.40346412 13.19387603 12.44779989 15 12.5 C16 13.5 16 13.5 16.1875 16.8125 C15.92902639 21.89581438 15.92902639 21.89581438 14 24.5 C9.50323199 27.22579742 5.11601791 26.8676914 0 26.875 C-0.90234375 26.89949219 -1.8046875 26.92398437 -2.734375 26.94921875 C-9.3539942 26.97859576 -9.3539942 26.97859576 -12.5625 24.6015625 C-15.159449 20.80493597 -15.28076751 17.68067648 -15.375 13.1875 C-15.42398438 11.87136719 -15.47296875 10.55523437 -15.5234375 9.19921875 C-15 5.5 -15 5.5 -13.1015625 2.55078125 C-8.70867225 -0.35383762 -5.15076821 -0.16422739 0 0 Z " fill="#0C0B2E" transform="translate(227,303.5)"/>
<path d="M0 0 C0.88945313 -0.00257813 1.77890625 -0.00515625 2.6953125 -0.0078125 C7.52835771 0.0643225 11.15975096 0.23617779 15 3.5 C15.8125 6.1875 15.8125 6.1875 16 8.5 C14.68 8.5 13.36 8.5 12 8.5 C11.34 7.51 10.68 6.52 10 5.5 C7.98874964 5.06900401 7.98874964 5.06900401 5.68359375 5.171875 C4.41418945 5.17960937 4.41418945 5.17960937 3.11914062 5.1875 C2.23419922 5.208125 1.34925781 5.22875 0.4375 5.25 C-0.45130859 5.25515625 -1.34011719 5.2603125 -2.25585938 5.265625 C-6.45727079 4.94739345 -6.45727079 4.94739345 -10 6.5 C-10.09909302 8.83160055 -10.12970504 11.16629942 -10.125 13.5 C-10.12886719 15.418125 -10.12886719 15.418125 -10.1328125 17.375 C-10.35860893 20.36687244 -10.35860893 20.36687244 -9 21.5 C-7.58429877 21.58651611 -6.164405 21.60704904 -4.74609375 21.59765625 C-3.89208984 21.59443359 -3.03808594 21.59121094 -2.15820312 21.58789062 C-1.26037109 21.57951172 -0.36253906 21.57113281 0.5625 21.5625 C1.91504883 21.55573242 1.91504883 21.55573242 3.29492188 21.54882812 C5.53001314 21.53700225 7.76497437 21.5205222 10 21.5 C10.66 19.85 11.32 18.2 12 16.5 C8.04 16.5 4.08 16.5 0 16.5 C0 15.18 0 13.86 0 12.5 C2.47923801 12.47314905 4.9581884 12.45323453 7.4375 12.4375 C8.14455078 12.42912109 8.85160156 12.42074219 9.58007812 12.41210938 C11.38693559 12.40346412 13.19387603 12.44779989 15 12.5 C16 13.5 16 13.5 16.1875 16.8125 C15.92902639 21.89581438 15.92902639 21.89581438 14 24.5 C9.50323199 27.22579742 5.11601791 26.8676914 0 26.875 C-0.90234375 26.89949219 -1.8046875 26.92398437 -2.734375 26.94921875 C-9.3539942 26.97859576 -9.3539942 26.97859576 -12.5625 24.6015625 C-15.159449 20.80493597 -15.28076751 17.68067648 -15.375 13.1875 C-15.42398438 11.87136719 -15.47296875 10.55523437 -15.5234375 9.19921875 C-15 5.5 -15 5.5 -13.1015625 2.55078125 C-8.70867225 -0.35383762 -5.15076821 -0.16422739 0 0 Z " fill="#0C0B2E" transform="translate(66,303.5)"/>
<path d="M0 0 C0.99 0 1.98 0 3 0 C4.80932617 2.17138672 4.80932617 2.17138672 6.79296875 5.1796875 C7.50517578 6.25347656 8.21738281 7.32726562 8.95117188 8.43359375 C9.31782959 8.99804199 9.6844873 9.56249023 10.06225586 10.14404297 C11.1830666 11.86818012 12.31948749 13.5811387 13.45898438 15.29296875 C19 23.7128924 19 23.7128924 19 26 C16.6875 26.3125 16.6875 26.3125 14 26 C13.65582031 25.18144531 13.31164062 24.36289062 12.95703125 23.51953125 C11.30032046 20.84404686 11.30032046 20.84404686 8.9362793 20.50805664 C6.27506906 20.32474905 3.66677567 20.31865967 1 20.375 C-0.37285156 20.34599609 -0.37285156 20.34599609 -1.7734375 20.31640625 C-4.29550762 20.3348965 -6.54573638 20.41496023 -9 21 C-11.02604224 23.38355888 -11.02604224 23.38355888 -12 26 C-14.6875 26.3125 -14.6875 26.3125 -17 26 C-15.36987393 21.09044384 -12.56582682 17.19454772 -9.625 13 C-9.14289063 12.30132812 -8.66078125 11.60265625 -8.1640625 10.8828125 C-2.49450792 2.7174214 -2.49450792 2.7174214 0 0 Z " fill="#111032" transform="translate(264,304)"/>
<path d="M0 0 C3.61275268 0.6019667 3.93893382 0.92099689 6.3671875 4.0625 C7.21492632 5.36740867 8.05029704 6.68041189 8.875 8 C9.75515798 9.36721992 10.6353662 10.73440749 11.515625 12.1015625 C11.93908203 12.76833008 12.36253906 13.43509766 12.79882812 14.12207031 C14.36422032 16.56942738 15.99210442 18.9723108 17.625 21.375 C20 24.87845304 20 24.87845304 20 26 C17.6875 26.25 17.6875 26.25 15 26 C13.02389614 23.95575462 12 22.8823175 12 20 C5.07 20 -1.86 20 -9 20 C-9.99 22.475 -9.99 22.475 -11 25 C-12 26 -12 26 -14.5625 26.0625 C-15.366875 26.041875 -16.17125 26.02125 -17 26 C-13.76495231 20.09844024 -10.0779408 14.59408478 -6.25 9.0625 C-5.64800781 8.18787109 -5.04601562 7.31324219 -4.42578125 6.41210938 C-2.95297306 4.27303082 -1.47766845 2.13572262 0 0 Z " fill="#111032" transform="translate(138,304)"/>
<path d="M0 0 C1.64435063 0.21972967 3.29003175 0.43001662 4.9375 0.625 C5.948125 0.74875 6.95875 0.8725 8 1 C6.38261562 2.9485784 5.5034416 3.91176174 2.96630859 4.35644531 C2.20141113 4.34709961 1.43651367 4.33775391 0.6484375 4.328125 C-0.20363281 4.32296875 -1.05570312 4.3178125 -1.93359375 4.3125 C-2.82175781 4.291875 -3.70992188 4.27125 -4.625 4.25 C-5.92244141 4.24226562 -5.92244141 4.24226562 -7.24609375 4.234375 C-11.28338416 4.18595173 -15.24052772 4.01263789 -19.24609375 3.5 C-25.62393183 2.72871351 -32.02087166 2.76629898 -38.4375 2.75 C-39.44389023 2.74599686 -39.44389023 2.74599686 -40.47061157 2.74191284 C-51.4202721 2.72133047 -62.11844176 3.50841691 -72.97631836 5.02050781 C-74.47884155 5.22885254 -74.47884155 5.22885254 -76.01171875 5.44140625 C-77.31822388 5.63778687 -77.31822388 5.63778687 -78.65112305 5.83813477 C-81.027949 6.00192601 -82.74201004 5.71543832 -85 5 C-57.95660431 -2.97213189 -27.75224895 -5.04236423 0 0 Z " fill="#6480FF" transform="translate(110,185)"/>
<path d="M0 0 C11.20801735 7.23851121 17.62564835 16.75194506 21.8125 29.3125 C21.88052967 31.04045352 21.89745645 32.77085365 21.875 34.5 C21.86597656 35.40105469 21.85695313 36.30210937 21.84765625 37.23046875 C21.83605469 37.91753906 21.82445312 38.60460937 21.8125 39.3125 C21.1525 39.3125 20.4925 39.3125 19.8125 39.3125 C19.8125 42.2825 19.8125 45.2525 19.8125 48.3125 C19.4825 48.3125 19.1525 48.3125 18.8125 48.3125 C18.78671875 47.28511719 18.7609375 46.25773437 18.734375 45.19921875 C18.22209267 30.996277 14.98462495 19.86821449 4.8984375 9.30859375 C-1.62788062 3.28930034 -8.52311827 -0.81543873 -17.33984375 -2.23046875 C-19.1875 -2.6875 -19.1875 -2.6875 -21.1875 -4.6875 C-33.2952499 -5.45624603 -42.62815514 -2.46140625 -53.1875 3.3125 C-54.51772025 3.98535683 -55.84976859 4.654703 -57.1875 5.3125 C-42.92419856 -11.32801835 -17.58466639 -9.652745 0 0 Z " fill="#A4B4FF" transform="translate(393.1875,211.6875)"/>
<path d="M0 0 C9.13490192 -0.52477096 17.92317507 0.55485255 25.3359375 6.3515625 C32.51832183 13.4665066 36.25762394 21.13461693 36.4375 31.25 C36.37503388 38.28090913 34.84771155 43.15972354 31 49 C30.34 48.67 29.68 48.34 29 48 C29.47730838 46.5410574 29.95691042 45.08286504 30.4375 43.625 C30.70433594 42.81289063 30.97117187 42.00078125 31.24609375 41.1640625 C32 39 32 39 33 37 C33.12227926 35.02362586 33.17549929 33.0426169 33.1875 31.0625 C33.20167969 30.00160156 33.21585937 28.94070312 33.23046875 27.84765625 C33.21565067 24.79722331 33.21565067 24.79722331 31 22 C30.6184375 22.43828125 30.236875 22.8765625 29.84375 23.328125 C27.57130518 25.38873174 25.28726234 26.47625108 22.5 27.75 C21.06140625 28.42289063 21.06140625 28.42289063 19.59375 29.109375 C17 30 17 30 14 29 C14.66 28.67 15.32 28.34 16 28 C15.34 27.34 14.68 26.68 14 26 C19.33333333 23.33333333 24.66666667 20.66666667 30 18 C25.55222377 11.21040219 21.11901829 6.2915885 13.04296875 4.25390625 C10.36572269 3.75557419 7.70235214 3.33282646 5 3 C5 2.67 5 2.34 5 2 C3.35 1.67 1.7 1.34 0 1 C0 0.67 0 0.34 0 0 Z " fill="#EBEEFF" transform="translate(362,220)"/>
<path d="M0 0 C3.87776171 -0.40938247 5.53983561 -0.3266519 8.7734375 1.96875 C9.63195312 2.8040625 10.49046875 3.639375 11.375 4.5 C12.68597656 5.75296875 12.68597656 5.75296875 14.0234375 7.03125 C14.67570312 7.6809375 15.32796875 8.330625 16 9 C19.22446979 7.58123329 21.36375498 5.82573309 23.875 3.375 C26.72859721 0.79393736 27.56872979 0.05390878 31.5 -0.4375 C32.325 -0.293125 33.15 -0.14875 34 0 C30.76104481 3.96772011 27.82101187 7.16370573 23.6875 10.1875 C20.9412634 12.46818411 20.09723785 13.58608914 19.26953125 17.109375 C19.02770099 20.09545294 18.92134819 23.00631561 19 26 C17.68 26 16.36 26 15 26 C15.020625 25.14277344 15.04125 24.28554688 15.0625 23.40234375 C15.07656163 16.68520264 15.07656163 16.68520264 12.36328125 10.75390625 C10.32067471 9.00699132 8.23536052 7.49024034 6 6 C3.9653439 4.37056891 1.98640871 2.68844741 0 1 C0 0.67 0 0.34 0 0 Z " fill="#100F32" transform="translate(416,304)"/>
<path d="M0 0 C6.27 0 12.54 0 19 0 C20.77997029 4.44992574 21.21222719 6.43711531 21 11 C14.29481414 11.19818283 8.34823202 11.30844801 2 9 C1.34 6.03 0.68 3.06 0 0 Z " fill="#FAFBFF" transform="translate(304,259)"/>
<path d="M0 0 C4.50551019 3.39385653 8.15174166 7.32217066 11.625 11.75 C11.295 12.41 10.965 13.07 10.625 13.75 C10.068125 13.08613281 9.51125 12.42226562 8.9375 11.73828125 C4.21745494 6.27674263 -0.03230699 2.20965073 -6.375 -1.25 C-6.705 -0.59 -7.035 0.07 -7.375 0.75 C-8.385625 0.275625 -9.39625 -0.19875 -10.4375 -0.6875 C-14.09334572 -2.23757859 -17.39247483 -2.91249787 -21.375 -3.25 C-22.46748047 -3.34667969 -22.46748047 -3.34667969 -23.58203125 -3.4453125 C-33.59170495 -3.930434 -43.01182052 -0.58819967 -51.375 4.75 C-52.70833333 5.41666667 -54.04166667 6.08333333 -55.375 6.75 C-56.365 7.41 -57.355 8.07 -58.375 8.75 C-55.91438961 2.42877676 -48.91209677 -1.50519052 -43.046875 -4.3984375 C-28.79825568 -9.89122586 -12.753836 -8.41907301 0 0 Z " fill="#A7B7FF" transform="translate(97.375,214.25)"/>
<path d="M0 0 C8.36952219 -0.52309514 13.80650445 1.96723721 20.375 7 C26.20035519 11.3931546 31.46311423 13.08558891 38.51953125 14.5078125 C39.31746094 14.67023438 40.11539063 14.83265625 40.9375 15 C41.64777344 15.12375 42.35804688 15.2475 43.08984375 15.375 C45.37525487 16.12278278 46.44160251 17.20222484 48 19 C30.28392869 19.8218796 13.80318469 12.0110875 0 1 C0 0.67 0 0.34 0 0 Z " fill="#F5F6FF" transform="translate(409,208)"/>
<path d="M0 0 C1.32 0 2.64 0 4 0 C4 7.26 4 14.52 4 22 C10.6 22 17.2 22 24 22 C24 23.32 24 24.64 24 26 C16.08 26 8.16 26 0 26 C0 17.42 0 8.84 0 0 Z " fill="#050428" transform="translate(317,304)"/>
<path d="M0 0 C1.32 0 2.64 0 4 0 C4 7.26 4 14.52 4 22 C10.6 22 17.2 22 24 22 C24 23.32 24 24.64 24 26 C16.08 26 8.16 26 0 26 C0 17.42 0 8.84 0 0 Z " fill="#050428" transform="translate(288,304)"/>
<path d="M0 0 C3.64581687 -0.02887512 7.29160463 -0.04675585 10.9375 -0.0625 C12.49887695 -0.07506836 12.49887695 -0.07506836 14.09179688 -0.08789062 C15.57583008 -0.09272461 15.57583008 -0.09272461 17.08984375 -0.09765625 C18.46450806 -0.10551147 18.46450806 -0.10551147 19.86694336 -0.11352539 C22 0 22 0 23 1 C23 3.31 23 5.62 23 8 C15.41 8 7.82 8 0 8 C0 5.36 0 2.72 0 0 Z " fill="#F9F9FA" transform="translate(385,308)"/>
<path d="M0 0 C3.47914941 -0.02887814 6.95826831 -0.04675687 10.4375 -0.0625 C11.92733398 -0.07506836 11.92733398 -0.07506836 13.44726562 -0.08789062 C14.39150391 -0.09111328 15.33574219 -0.09433594 16.30859375 -0.09765625 C17.62041626 -0.10551147 17.62041626 -0.10551147 18.95874023 -0.11352539 C21 0 21 0 22 1 C22 3.31 22 5.62 22 8 C14.74 8 7.48 8 0 8 C0 5.36 0 2.72 0 0 Z " fill="#FCFCFD" transform="translate(167,308)"/>
<path d="M0 0 C9.79122891 0.25971429 19.29047829 1.20309708 28.9375 2.9375 C29.90252441 3.10733398 30.86754883 3.27716797 31.86181641 3.45214844 C32.76206543 3.62133789 33.66231445 3.79052734 34.58984375 3.96484375 C35.39284912 4.1155835 36.19585449 4.26632324 37.02319336 4.42163086 C39 5 39 5 41 7 C36.89807649 7.31734338 32.79448105 7.57012808 28.6875 7.8125 C27.53958984 7.90208984 26.39167969 7.99167969 25.20898438 8.08398438 C16.85458205 8.53365475 11.26903459 7.06713406 4 3 C2.6694109 2.32787288 1.33705049 1.65917996 0 1 C0 0.67 0 0.34 0 0 Z " fill="#E9ECFF" transform="translate(208,151)"/>
<path d="M0 0 C3.78715258 1.89357629 4.79256421 2.63889799 7.125 5.875 C7.62257813 6.55304688 8.12015625 7.23109375 8.6328125 7.9296875 C11.08272585 11.63955629 12 13.42449099 12 18 C8.03611362 18.07622858 4.8726592 17.9681648 1 17 C0.67 11.39 0.34 5.78 0 0 Z " fill="#F8F9FF" transform="translate(274,223)"/>
<path d="M0 0 C0.99 0.66 1.98 1.32 3 2 C4.67675986 10.54818751 1.75660103 19.44545804 -2.5625 26.75 C-6.48810161 32.24389407 -11.81788439 35.81518478 -18.31640625 37.65625 C-22.18168417 38.28266705 -23.68157501 38.21228333 -27 36 C-26.3709375 35.91363281 -25.741875 35.82726562 -25.09375 35.73828125 C-17.37723577 34.47156431 -11.43285999 32.01036357 -6.1875 26.0625 C-1.86609827 20.01253758 -0.52839692 15.40381035 -0.3125 8.125 C-0.27833984 7.34125 -0.24417969 6.5575 -0.20898438 5.75 C-0.12719588 3.83381252 -0.0619054 1.91693285 0 0 Z " fill="#E7EBFF" transform="translate(99,244)"/>
<path d="M0 0 C6.65147701 0.91321508 12.95894394 2.25464834 18 7 C18 7.99 18 8.98 18 10 C12.06 9.67 6.12 9.34 0 9 C0 6.03 0 3.06 0 0 Z " fill="#F6F7FF" transform="translate(275,246)"/>
<path d="M0 0 C0.66 0 1.32 0 2 0 C2.33 1.65 2.66 3.3 3 5 C5.31 5 7.62 5 10 5 C9.319375 5.515625 8.63875 6.03125 7.9375 6.5625 C5.57571378 8.97254504 5.57571378 8.97254504 6.25 12.75 C6.4975 13.8225 6.745 14.895 7 16 C6.443125 15.649375 5.88625 15.29875 5.3125 14.9375 C2.42802833 13.76811959 0.96830334 14.23889658 -2 15 C-2.99 15 -3.98 15 -5 15 C-4.7525 14.0925 -4.505 13.185 -4.25 12.25 C-3.61740673 8.91162152 -3.61740673 8.91162152 -5.9375 6.625 C-6.618125 6.08875 -7.29875 5.5525 -8 5 C-5.69 5 -3.38 5 -1 5 C-0.67 3.35 -0.34 1.7 0 0 Z " fill="#252443" transform="translate(249,374)"/>
<path d="M0 0 C1.20462891 -0.02126953 1.20462891 -0.02126953 2.43359375 -0.04296875 C4.5625 0.1875 4.5625 0.1875 6.5625 2.1875 C6.8125 5.1875 6.8125 5.1875 6.5625 8.1875 C4.5625 10.1875 4.5625 10.1875 2.43359375 10.41796875 C1.63050781 10.40378906 0.82742187 10.38960938 0 10.375 C-1.20849609 10.36533203 -1.20849609 10.36533203 -2.44140625 10.35546875 C-4.4375 10.1875 -4.4375 10.1875 -5.4375 9.1875 C-5.5703125 7.375 -5.5703125 7.375 -5.5625 5.1875 C-5.56507813 4.465625 -5.56765625 3.74375 -5.5703125 3 C-5.30617401 -0.60471352 -3.10298188 0.02482386 0 0 Z " fill="#33324F" transform="translate(254.4375,343.8125)"/>
<path d="M0 0 C4.43928644 1.36593429 8.56372215 3.11833577 12.75390625 5.09765625 C17.43873404 6.97973489 21.79759361 7.11315562 26.8125 7.0625 C28.55466797 7.04896484 28.55466797 7.04896484 30.33203125 7.03515625 C31.21246094 7.02355469 32.09289062 7.01195312 33 7 C33 7.66 33 8.32 33 9 C33.66 9.66 34.32 10.32 35 11 C21.89373492 11.5707567 11.46528381 9.41751505 0 3 C0 2.01 0 1.02 0 0 Z " fill="#6480FF" transform="translate(425,219)"/>
<path d="M0 0 C0.66 0 1.32 0 2 0 C1.46695215 3.84979006 -0.0281745 5.23601029 -3.0625 7.5625 C-10.83629189 13.26736145 -17.35209542 14.87317831 -27 14 C-29.45479119 13.5030959 -31.63305423 12.84158072 -34 12 C-33.67 11.34 -33.34 10.68 -33 10 C-32.29230469 10.15726562 -31.58460938 10.31453125 -30.85546875 10.4765625 C-21.22644449 12.24166407 -14.34051101 10.98617506 -6 6 C-4.90945313 5.48953125 -4.90945313 5.48953125 -3.796875 4.96875 C-1.489142 3.7245809 -0.95543421 2.38858552 0 0 Z " fill="#E5EAFF" transform="translate(390,268)"/>
<path d="M0 0 C3.96 0 7.92 0 12 0 C12 3.3 12 6.6 12 10 C11.67 8.68 11.34 7.36 11 6 C8.03 6 5.06 6 2 6 C2 7.32 2 8.64 2 10 C1.34 10 0.68 10 0 10 C0 6.7 0 3.4 0 0 Z " fill="#1C1C3C" transform="translate(194,344)"/>
<path d="M0 0 C0 0.33 0 0.66 0 1 C-1.59714844 1.02126953 -1.59714844 1.02126953 -3.2265625 1.04296875 C-16.05429896 1.39508521 -27.02395666 3.94397214 -38 11 C-37.8359375 9.1953125 -37.8359375 9.1953125 -37 7 C-26.58919305 -0.27711924 -12.39190231 -3.19791027 0 0 Z " fill="#EEF1FF" transform="translate(377,207)"/>
<path d="M0 0 C0.66 0.66 1.32 1.32 2 2 C1.8125 4.5 1.8125 4.5 1 7 C-2 9 -2 9 -4.0625 8.75 C-6 8 -6 8 -8 6 C-7.75 2.9375 -7.75 2.9375 -7 0 C-4.29393021 -1.35303489 -2.8671629 -0.7884698 0 0 Z " fill="#F2F4FF" transform="translate(372,248)"/>
<path d="M0 0 C1.37478516 0.01740234 1.37478516 0.01740234 2.77734375 0.03515625 C3.69644531 0.04417969 4.61554688 0.05320312 5.5625 0.0625 C6.27277344 0.07410156 6.98304688 0.08570313 7.71484375 0.09765625 C8.04484375 0.75765625 8.37484375 1.41765625 8.71484375 2.09765625 C5.41484375 2.09765625 2.11484375 2.09765625 -1.28515625 2.09765625 C-1.28515625 2.75765625 -1.28515625 3.41765625 -1.28515625 4.09765625 C1.68484375 4.09765625 4.65484375 4.09765625 7.71484375 4.09765625 C8.09703142 5.75380282 8.42879477 7.42222649 8.71484375 9.09765625 C7.71484375 10.09765625 7.71484375 10.09765625 5.4296875 10.1953125 C4.05490234 10.17791016 4.05490234 10.17791016 2.65234375 10.16015625 C1.73324219 10.15113281 0.81414062 10.14210938 -0.1328125 10.1328125 C-0.84308594 10.12121094 -1.55335938 10.10960937 -2.28515625 10.09765625 C-2.61515625 9.43765625 -2.94515625 8.77765625 -3.28515625 8.09765625 C0.01484375 8.09765625 3.31484375 8.09765625 6.71484375 8.09765625 C6.71484375 7.43765625 6.71484375 6.77765625 6.71484375 6.09765625 C3.74484375 6.09765625 0.77484375 6.09765625 -2.28515625 6.09765625 C-2.66734392 4.44150968 -2.99910727 2.77308601 -3.28515625 1.09765625 C-2.28515625 0.09765625 -2.28515625 0.09765625 0 0 Z " fill="#373653" transform="translate(322.28515625,343.90234375)"/>
<path d="M0 0 C1.37478516 0.01740234 1.37478516 0.01740234 2.77734375 0.03515625 C3.69644531 0.04417969 4.61554688 0.05320312 5.5625 0.0625 C6.27277344 0.07410156 6.98304688 0.08570313 7.71484375 0.09765625 C8.04484375 0.75765625 8.37484375 1.41765625 8.71484375 2.09765625 C5.41484375 2.09765625 2.11484375 2.09765625 -1.28515625 2.09765625 C-1.28515625 2.75765625 -1.28515625 3.41765625 -1.28515625 4.09765625 C1.68484375 4.09765625 4.65484375 4.09765625 7.71484375 4.09765625 C8.09703142 5.75380282 8.42879477 7.42222649 8.71484375 9.09765625 C7.71484375 10.09765625 7.71484375 10.09765625 5.4296875 10.1953125 C4.05490234 10.17791016 4.05490234 10.17791016 2.65234375 10.16015625 C1.73324219 10.15113281 0.81414062 10.14210938 -0.1328125 10.1328125 C-0.84308594 10.12121094 -1.55335938 10.10960937 -2.28515625 10.09765625 C-2.61515625 9.43765625 -2.94515625 8.77765625 -3.28515625 8.09765625 C0.01484375 8.09765625 3.31484375 8.09765625 6.71484375 8.09765625 C6.71484375 7.43765625 6.71484375 6.77765625 6.71484375 6.09765625 C3.74484375 6.09765625 0.77484375 6.09765625 -2.28515625 6.09765625 C-2.66734392 4.44150968 -2.99910727 2.77308601 -3.28515625 1.09765625 C-2.28515625 0.09765625 -2.28515625 0.09765625 0 0 Z " fill="#373653" transform="translate(219.28515625,343.90234375)"/>
<path d="M0 0 C0.66 0 1.32 0 2 0 C4.21436615 3.21255192 6.053529 6.61483304 8 10 C3.38 10 -1.24 10 -6 10 C-1.5078125 2.1875 -1.5078125 2.1875 0 0 Z " fill="#F1F1F3" transform="translate(264,310)"/>
<path d="M0 0 C6.6 0 13.2 0 20 0 C20 0.66 20 1.32 20 2 C18.12743583 2.50904657 16.25180659 3.00682455 14.375 3.5 C13.33085937 3.7784375 12.28671875 4.056875 11.2109375 4.34375 C8.04312582 4.99118596 5.22258533 5.1161292 2 5 C1.34 3.35 0.68 1.7 0 0 Z " fill="#F8F9FF" transform="translate(473,270)"/>
<path d="M0 0 C0.51046875 0.39960938 1.0209375 0.79921875 1.546875 1.2109375 C-1.36281488 4.42329015 -4.07084473 6.24694462 -8.015625 8.0234375 C-8.96566406 8.46300781 -9.91570312 8.90257812 -10.89453125 9.35546875 C-13.453125 10.2109375 -13.453125 10.2109375 -16.453125 9.2109375 C-15.793125 8.8809375 -15.133125 8.5509375 -14.453125 8.2109375 C-15.113125 7.5509375 -15.773125 6.8909375 -16.453125 6.2109375 C-14.21212931 4.98258425 -11.9629872 3.77864255 -9.703125 2.5859375 C-8.75179688 2.06 -8.75179688 2.06 -7.78125 1.5234375 C-3.00217062 -0.96566635 -3.00217062 -0.96566635 0 0 Z " fill="#B3C1FF" transform="translate(392.453125,239.7890625)"/>
<path d="M0 0 C0.66 0.33 1.32 0.66 2 1 C2 2.32 2 3.64 2 5 C3.98 5 5.96 5 8 5 C7.505 5.391875 7.01 5.78375 6.5 6.1875 C4.54406857 8.55091715 4.75792027 10.01435003 5 13 C4.05125 12.814375 3.1025 12.62875 2.125 12.4375 C-0.89868793 11.71313368 -0.89868793 11.71313368 -3 13 C-2.67 11.35 -2.34 9.7 -2 8 C-3.32 7.34 -4.64 6.68 -6 6 C-6 5.67 -6 5.34 -6 5 C-4.35 5 -2.7 5 -1 5 C-0.67 3.35 -0.34 1.7 0 0 Z " fill="#171637" transform="translate(298,360)"/>
<path d="M0 0 C0.66 0 1.32 0 2 0 C2.33 1.32 2.66 2.64 3 4 C4.65 4 6.3 4 8 4 C7.505 4.391875 7.01 4.78375 6.5 5.1875 C4.54406857 7.55091715 4.75792027 9.01435003 5 12 C4.236875 11.814375 3.47375 11.62875 2.6875 11.4375 C-0.08967375 10.77180827 -0.08967375 10.77180827 -3 12 C-2.938125 11.236875 -2.87625 10.47375 -2.8125 9.6875 C-2.74101915 6.95474688 -2.74101915 6.95474688 -4.5 5.1875 C-4.995 4.795625 -5.49 4.40375 -6 4 C-4.35 3.67 -2.7 3.34 -1 3 C-0.67 2.01 -0.34 1.02 0 0 Z " fill="#171637" transform="translate(200,360)"/>
<path d="M0 0 C3.33557632 2.9905167 5.15083921 5.93184627 7 10 C2.71 10 -1.58 10 -6 10 C-1.125 1.125 -1.125 1.125 0 0 Z " fill="#F8F8F9" transform="translate(139,310)"/>
<path d="M0 0 C4.55555556 0.55555556 4.55555556 0.55555556 6 2 C6.125 5 6.125 5 6 8 C5 9 5 9 2.0625 9.1875 C-1 9 -1 9 -3 7 C-2.67028521 3.70285207 -2.3773161 2.3773161 0 0 Z " fill="#F6F7FF" transform="translate(71,248)"/>
<path d="M0 0 C0.66 0.99 1.32 1.98 2 3 C-2.24860767 3.5326386 -6.49903225 4.0490656 -10.75 4.5625 C-12.55984375 4.78969727 -12.55984375 4.78969727 -14.40625 5.02148438 C-16.14648438 5.2293457 -16.14648438 5.2293457 -17.921875 5.44140625 C-19.52434082 5.63778687 -19.52434082 5.63778687 -21.15917969 5.83813477 C-23.75583919 5.98608812 -25.55233537 5.80814243 -28 5 C-23.17570016 3.5682723 -18.37402571 2.37749445 -13.4375 1.375 C-12.17808594 1.11460937 -10.91867188 0.85421875 -9.62109375 0.5859375 C-6.28318926 0.0458235 -3.36429686 -0.34581612 0 0 Z " fill="#738CFF" transform="translate(53,185)"/>
<path d="M0 0 C3.78699616 3.36621881 6.8272631 7.41641804 9 12 C8.67 12.66 8.34 13.32 8 14 C7.67 14 7.34 14 7 14 C6.67 14.66 6.34 15.32 6 16 C2.39363961 11.53174216 -0.58036591 7.67853635 -2 2 C-1.34 2 -0.68 2 0 2 C0 1.34 0 0.68 0 0 Z " fill="#ACBBFF" transform="translate(375,258)"/>
<path d="M0 0 C1.35254883 0.00290039 1.35254883 0.00290039 2.73242188 0.00585938 C4.14297852 0.02422852 4.14297852 0.02422852 5.58203125 0.04296875 C6.50306641 0.04361328 7.42410156 0.04425781 8.37304688 0.04492188 C13.79832268 0.07957587 19.02692969 0.44204314 24.39453125 1.23046875 C24.39453125 1.89046875 24.39453125 2.55046875 24.39453125 3.23046875 C13.83453125 2.90046875 3.27453125 2.57046875 -7.60546875 2.23046875 C-4.42441008 0.10976297 -3.64110482 -0.01839853 0 0 Z " fill="#7C94FF" transform="translate(137.60546875,261.76953125)"/>
<path d="M0 0 C3.43859819 0.27912628 4.6928044 0.65239956 7.01953125 3.28515625 C7.61121094 4.20167969 8.20289062 5.11820312 8.8125 6.0625 C9.41707031 6.98160156 10.02164063 7.90070313 10.64453125 8.84765625 C11.09183594 9.55792969 11.53914063 10.26820313 12 11 C11.67 11.66 11.34 12.32 11 13 C10.67 13 10.34 13 10 13 C9.67 13.66 9.34 14.32 9 15 C7.86863414 13.44210317 6.74517679 11.87846143 5.625 10.3125 C4.99851562 9.44238281 4.37203125 8.57226562 3.7265625 7.67578125 C2.10584157 5.16403048 1.00141912 2.80700813 0 0 Z " fill="#B6C3FF" transform="translate(76,260)"/>
<path d="M0 0 C6.93 0 13.86 0 21 0 C21 0.99 21 1.98 21 3 C14.4 3 7.8 3 1 3 C0.67 2.01 0.34 1.02 0 0 Z " fill="#ECEFFF" transform="translate(470,265)"/>
<path d="M0 0 C0.99 0.66 1.98 1.32 3 2 C4.38990132 11.26600882 3.18882466 19.12410543 -2 27 C-2.66 26.67 -3.32 26.34 -4 26 C-3.52269162 24.5410574 -3.04308958 23.08286504 -2.5625 21.625 C-2.29566406 20.81289063 -2.02882813 20.00078125 -1.75390625 19.1640625 C-1 17 -1 17 0 15 C0.0716735 12.44842345 0.09308442 9.92527029 0.0625 7.375 C0.05798828 6.66859375 0.05347656 5.9621875 0.04882812 5.234375 C0.03703875 3.48954725 0.01910324 1.744763 0 0 Z " fill="#ECEFFF" transform="translate(395,242)"/>
<path d="M0 0 C-0.66 0 -1.32 0 -2 0 C-2 0.66 -2 1.32 -2 2 C-1.01 2.33 -0.02 2.66 1 3 C-0.9151579 3.81604999 -2.83218834 4.62770632 -4.75 5.4375 C-5.81734375 5.88996094 -6.8846875 6.34242188 -7.984375 6.80859375 C-10.3413841 7.73979553 -12.52992835 8.4784072 -15 9 C-14.34 8.01 -13.68 7.02 -13 6 C-13.99 5.67 -14.98 5.34 -16 5 C-13.90163996 3.96728358 -11.79609109 2.94916283 -9.6875 1.9375 C-8.51574219 1.36902344 -7.34398438 0.80054688 -6.13671875 0.21484375 C-3 -1 -3 -1 0 0 Z " fill="#B9C6FF" transform="translate(96,242)"/>
<path d="M0 0 C3.28788824 3.11016455 5.83735988 6.01618925 8 10 C7.01 10 6.02 10 5 10 C5 9.34 5 8.68 5 8 C2.03 8 -0.94 8 -4 8 C-4 8.66 -4 9.32 -4 10 C-4.66 10 -5.32 10 -6 10 C-4.6302836 6.00499382 -2.74277578 3.19990508 0 0 Z " fill="#2C2B49" transform="translate(183,344)"/>
<path d="M0 0 C0.99 0.33 1.98 0.66 3 1 C4.1875 3.5625 4.1875 3.5625 5 6 C6.32 4.02 7.64 2.04 9 0 C11.0245738 1.93254772 12.42105792 3.63158688 14 6 C14.99 4.02 15.98 2.04 17 0 C17.66 0.33 18.32 0.66 19 1 C17.68 3.97 16.36 6.94 15 10 C14.34 10 13.68 10 13 10 C11.515 7.03 11.515 7.03 10 4 C8.49440461 5.96382007 7.10868317 7.78263366 6 10 C5.34 10 4.68 10 4 10 C2.68 6.7 1.36 3.4 0 0 Z " fill="#262544" transform="translate(264,344)"/>
<path d="M0 0 C0.66 0 1.32 0 2 0 C4.21436615 3.21255192 6.053529 6.61483304 8 10 C2.06 9.01 2.06 9.01 -4 8 C-4 8.66 -4 9.32 -4 10 C-4.66 10 -5.32 10 -6 10 C-4.34643078 6.41726669 -2.32019297 3.19026533 0 0 Z " fill="#262645" transform="translate(308,344)"/>
<path d="M0 0 C0.33 0 0.66 0 1 0 C1 6.93 1 13.86 1 21 C-2.32232061 17.67767939 -2.89059555 16.39490671 -3.25 11.8125 C-2.95290069 7.28173546 -1.75485469 4.1677799 0 0 Z " fill="#F7F8FF" transform="translate(499,247)"/>
<path d="M0 0 C2.64 0 5.28 0 8 0 C8 0.66 8 1.32 8 2 C7.01 2.495 7.01 2.495 6 3 C10.62 5.97 15.24 8.94 20 12 C19.67 12.99 19.34 13.98 19 15 C16.58237088 13.39726826 14.1658743 11.79287303 11.75 10.1875 C11.06808594 9.73568359 10.38617188 9.28386719 9.68359375 8.81835938 C1.95808307 3.68051975 1.95808307 3.68051975 0 2 C0 1.34 0 0.68 0 0 Z " fill="#637FFF" transform="translate(405,206)"/>
<path d="M0 0 C1.37478516 0.01740234 1.37478516 0.01740234 2.77734375 0.03515625 C3.69644531 0.04417969 4.61554688 0.05320312 5.5625 0.0625 C6.27277344 0.07410156 6.98304688 0.08570313 7.71484375 0.09765625 C8.04484375 1.08765625 8.37484375 2.07765625 8.71484375 3.09765625 C5.41484375 2.76765625 2.11484375 2.43765625 -1.28515625 2.09765625 C-1.28515625 4.07765625 -1.28515625 6.05765625 -1.28515625 8.09765625 C2.01484375 7.76765625 5.31484375 7.43765625 8.71484375 7.09765625 C8.38484375 8.08765625 8.05484375 9.07765625 7.71484375 10.09765625 C6.25691491 10.15165361 4.79841663 10.19044802 3.33984375 10.22265625 C2.52773438 10.24585938 1.715625 10.2690625 0.87890625 10.29296875 C-1.28515625 10.09765625 -1.28515625 10.09765625 -3.28515625 8.09765625 C-3.47265625 4.53515625 -3.47265625 4.53515625 -3.28515625 1.09765625 C-2.28515625 0.09765625 -2.28515625 0.09765625 0 0 Z " fill="#464560" transform="translate(289.28515625,343.90234375)"/>
<path d="M0 0 C1.37478516 0.01740234 1.37478516 0.01740234 2.77734375 0.03515625 C3.69644531 0.04417969 4.61554688 0.05320312 5.5625 0.0625 C6.27277344 0.07410156 6.98304688 0.08570313 7.71484375 0.09765625 C8.04484375 1.08765625 8.37484375 2.07765625 8.71484375 3.09765625 C5.41484375 2.76765625 2.11484375 2.43765625 -1.28515625 2.09765625 C-1.28515625 4.07765625 -1.28515625 6.05765625 -1.28515625 8.09765625 C2.01484375 7.76765625 5.31484375 7.43765625 8.71484375 7.09765625 C8.38484375 8.08765625 8.05484375 9.07765625 7.71484375 10.09765625 C6.25691491 10.15165361 4.79841663 10.19044802 3.33984375 10.22265625 C2.52773437 10.24585938 1.715625 10.2690625 0.87890625 10.29296875 C-1.28515625 10.09765625 -1.28515625 10.09765625 -3.28515625 8.09765625 C-3.47265625 4.53515625 -3.47265625 4.53515625 -3.28515625 1.09765625 C-2.28515625 0.09765625 -2.28515625 0.09765625 0 0 Z " fill="#464560" transform="translate(164.28515625,343.90234375)"/>
<path d="M0 0 C0.99 0.33 1.98 0.66 3 1 C1.58832253 6.26170694 -0.74850232 9.72171358 -4 14 C-5.32 13.34 -6.64 12.68 -8 12 C-6.85573734 10.186508 -5.70954608 8.37423275 -4.5625 6.5625 C-3.60537109 5.04849609 -3.60537109 5.04849609 -2.62890625 3.50390625 C-1 1 -1 1 0 0 Z " fill="#B2C0FF" transform="translate(66,259)"/>
<path d="M0 0 C2.97 0 5.94 0 9 0 C9 1.98 9 3.96 9 6 C6.03 6 3.06 6 0 6 C0 4.02 0 2.04 0 0 Z " fill="#F7F7F8" transform="translate(250,346)"/>
<path d="M0 0 C0.66 0 1.32 0 2 0 C2 1.32 2 2.64 2 4 C4.97 4 7.94 4 11 4 C11.33 2.68 11.66 1.36 12 0 C12 3.3 12 6.6 12 10 C11.67 8.68 11.34 7.36 11 6 C8.03 6 5.06 6 2 6 C2 7.32 2 8.64 2 10 C1.34 10 0.68 10 0 10 C0 6.7 0 3.4 0 0 Z " fill="#2D2D4B" transform="translate(232,344)"/>
<path d="M0 0 C8.57142857 0.71428571 8.57142857 0.71428571 12 4 C11.67 4.33 11.34 4.66 11 5 C11.99 5.33 12.98 5.66 14 6 C14 6.66 14 7.32 14 8 C12.41531323 7.54636829 10.83230076 7.08688548 9.25 6.625 C8.36828125 6.36976563 7.4865625 6.11453125 6.578125 5.8515625 C4.23919428 5.0790066 2.16557438 4.16374324 0 3 C0 2.01 0 1.02 0 0 Z " fill="#C6D0FF" transform="translate(52,243)"/>
<path d="M0 0 C3.63 0 7.26 0 11 0 C11 1.32 11 2.64 11 4 C7.37 4 3.74 4 0 4 C0 2.68 0 1.36 0 0 Z " fill="#43425D" transform="translate(197,315)"/>
<path d="M0 0 C2.58340384 -0.02703562 5.16652308 -0.04685611 7.75 -0.0625 C8.47960937 -0.07087891 9.20921875 -0.07925781 9.9609375 -0.08789062 C13.48670558 -0.10391684 16.61034916 0.04707287 20 1 C20 1.66 20 2.32 20 3 C13.4 2.67 6.8 2.34 0 2 C0 1.34 0 0.68 0 0 Z " fill="#637FFF" transform="translate(162,263)"/>
<path d="M0 0 C0.96808594 -0.01675781 1.93617188 -0.03351563 2.93359375 -0.05078125 C5.89997041 0.3591341 6.75636292 0.99207304 8.5625 3.3125 C8.2325 3.9725 7.9025 4.6325 7.5625 5.3125 C7.0675 4.9825 6.5725 4.6525 6.0625 4.3125 C2.5443753 2.90525012 -0.6939074 2.78318055 -4.4375 3.3125 C-6.8970774 4.65080958 -6.8970774 4.65080958 -8.4375 6.3125 C-7.34259159 0.83795796 -5.42805773 0.02162573 0 0 Z " fill="#E7EBFF" transform="translate(165.4375,198.6875)"/>
<path d="M0 0 C7.26 0 14.52 0 22 0 C21.01 0.495 21.01 0.495 20 1 C20 1.66 20 2.32 20 3 C6.3667426 2.03644647 6.3667426 2.03644647 0 1 C0 0.67 0 0.34 0 0 Z " fill="#7991FF" transform="translate(200,235)"/>
<path d="M0 0 C4.95 0 9.9 0 15 0 C15 0.66 15 1.32 15 2 C15.66 2.66 16.32 3.32 17 4 C14.95840905 4.0272616 12.91671037 4.04651345 10.875 4.0625 C9.73804688 4.07410156 8.60109375 4.08570313 7.4296875 4.09765625 C4.1870844 4.005327 1.18067388 3.61389906 -2 3 C-1.34 2.67 -0.68 2.34 0 2 C0 1.34 0 0.68 0 0 Z " fill="#7D94FF" transform="translate(443,226)"/>
<path d="M0 0 C2.97 0 5.94 0 9 0 C9 1.32 9 2.64 9 4 C6.03 4 3.06 4 0 4 C0 2.68 0 1.36 0 0 Z " fill="#CCCBD3" transform="translate(196,345)"/>
<path d="M0 0 C1.485 0.99 1.485 0.99 3 2 C3.29296875 4.3828125 3.29296875 4.3828125 3.1875 7.125 C3.16042969 8.03507813 3.13335937 8.94515625 3.10546875 9.8828125 C3.07066406 10.58148438 3.03585938 11.28015625 3 12 C2.01 12.33 1.02 12.66 0 13 C0 8.71 0 4.42 0 0 Z " fill="#DCE2FF" transform="translate(99,244)"/>
<path d="M0 0 C8.86173965 -0.46459606 8.86173965 -0.46459606 13.0625 1.25 C15.18436938 3.16652718 15.70926678 4.18957887 16 7 C15.01 7.495 15.01 7.495 14 8 C13.5978125 6.824375 13.5978125 6.824375 13.1875 5.625 C9.73756739 1.48508087 5.16216845 1.58720762 0 1 C0 0.67 0 0.34 0 0 Z " fill="#7C93FF" transform="translate(160,197)"/>
<path d="M0 0 C0.66 0 1.32 0 2 0 C1.53411505 5.70709064 0.06242216 9.15939723 -3 14 C-3.66 13.34 -4.32 12.68 -5 12 C-4.72285156 11.46890625 -4.44570312 10.9378125 -4.16015625 10.390625 C-3.79792969 9.68421875 -3.43570313 8.9778125 -3.0625 8.25 C-2.52302734 7.20585937 -2.52302734 7.20585937 -1.97265625 6.140625 C-1.04441818 4.09775567 -0.46833422 2.18884624 0 0 Z " fill="#F0F3FF" transform="translate(99,257)"/>
<path d="M0 0 C6.09781001 -0.22084624 11.21642935 -0.01167675 17 2 C17 2.66 17 3.32 17 4 C13.04 3.67 9.08 3.34 5 3 C5 2.67 5 2.34 5 2 C3.35 1.67 1.7 1.34 0 1 C0 0.67 0 0.34 0 0 Z " fill="#DCE2FF" transform="translate(362,220)"/>
<path d="M0 0 C1.485 0.99 1.485 0.99 3 2 C3.29296875 5.0390625 3.29296875 5.0390625 3.1875 8.625 C3.16042969 9.81351563 3.13335937 11.00203125 3.10546875 12.2265625 C3.07066406 13.14179688 3.03585937 14.05703125 3 15 C2.34 15 1.68 15 1 15 C0.67 10.05 0.34 5.1 0 0 Z " fill="#F7F8FF" transform="translate(395,242)"/>
<path d="M0 0 C0.70125 0.268125 1.4025 0.53625 2.125 0.8125 C-0.89052571 3.4092027 -3.02332739 4.94276748 -6.875 5.8125 C-9.0822358 7.30050372 -9.0822358 7.30050372 -10.875 8.8125 C-9.09681934 4.01141223 -5.34841722 -0.34880982 0 0 Z " fill="#C0CBFF" transform="translate(49.875,214.1875)"/>
<path d="M0 0 C4.12600606 1.25574098 7.97405342 3.04775923 11.875 4.875 C11.215 5.535 10.555 6.195 9.875 6.875 C9.21113281 6.59785156 8.54726563 6.32070312 7.86328125 6.03515625 C6.98027344 5.67292969 6.09726562 5.31070313 5.1875 4.9375 C4.31738281 4.57785156 3.44726562 4.21820313 2.55078125 3.84765625 C-0.00679265 2.9179688 -2.4471323 2.33337375 -5.125 1.875 C-2.125 -0.125 -2.125 -0.125 0 0 Z " fill="#DEE4FF" transform="translate(379.125,207.125)"/>
<path d="M0 0 C1.13643966 3.40931897 0.86747764 4.00335456 -0.4375 7.1875 C-0.72496094 7.90292969 -1.01242187 8.61835938 -1.30859375 9.35546875 C-1.53675781 9.89816406 -1.76492188 10.44085938 -2 11 C-2.66 10.67 -3.32 10.34 -4 10 C-3.38461538 3.47692308 -3.38461538 3.47692308 -1.4375 1.0625 C-0.7259375 0.5365625 -0.7259375 0.5365625 0 0 Z " fill="#EFF2FF" transform="translate(386,250)"/>
<path d="M0 0 C0.66 1.32 1.32 2.64 2 4 C5.3 4 8.6 4 12 4 C11.67 4.99 11.34 5.98 11 7 C9.54207116 7.05399736 8.08357288 7.09279177 6.625 7.125 C5.81289063 7.14820313 5.00078125 7.17140625 4.1640625 7.1953125 C2 7 2 7 0 5 C-0.125 2.375 -0.125 2.375 0 0 Z " fill="#32314E" transform="translate(286,347)"/>
<path d="M0 0 C0.66 1.32 1.32 2.64 2 4 C5.3 4 8.6 4 12 4 C11.67 4.99 11.34 5.98 11 7 C9.54207116 7.05399736 8.08357288 7.09279177 6.625 7.125 C5.81289062 7.14820313 5.00078125 7.17140625 4.1640625 7.1953125 C2 7 2 7 0 5 C-0.125 2.375 -0.125 2.375 0 0 Z " fill="#32314E" transform="translate(161,347)"/>
<path d="M0 0 C1.16402344 0.28810547 1.16402344 0.28810547 2.3515625 0.58203125 C4.375 1.1875 4.375 1.1875 6.375 2.1875 C6.045 3.1775 5.715 4.1675 5.375 5.1875 C4.364375 4.713125 3.35375 4.23875 2.3125 3.75 C-1.28422205 2.1938672 -4.71768709 1.5862054 -8.625 1.1875 C-5.38133094 -0.80461639 -3.66164727 -0.94908918 0 0 Z " fill="#E9EDFF" transform="translate(84.625,209.8125)"/>
<path d="M0 0 C1.37478516 0.01740234 1.37478516 0.01740234 2.77734375 0.03515625 C3.69644531 0.04417969 4.61554688 0.05320312 5.5625 0.0625 C6.27277344 0.07410156 6.98304688 0.08570313 7.71484375 0.09765625 C8.04484375 0.75765625 8.37484375 1.41765625 8.71484375 2.09765625 C5.41484375 2.09765625 2.11484375 2.09765625 -1.28515625 2.09765625 C-1.61515625 3.08765625 -1.94515625 4.07765625 -2.28515625 5.09765625 C-2.84765625 3.16015625 -2.84765625 3.16015625 -3.28515625 1.09765625 C-2.28515625 0.09765625 -2.28515625 0.09765625 0 0 Z " fill="#3D3D58" transform="translate(322.28515625,343.90234375)"/>
<path d="M0 0 C1.37478516 0.01740234 1.37478516 0.01740234 2.77734375 0.03515625 C3.69644531 0.04417969 4.61554688 0.05320312 5.5625 0.0625 C6.27277344 0.07410156 6.98304688 0.08570313 7.71484375 0.09765625 C8.04484375 0.75765625 8.37484375 1.41765625 8.71484375 2.09765625 C5.41484375 2.09765625 2.11484375 2.09765625 -1.28515625 2.09765625 C-1.61515625 3.08765625 -1.94515625 4.07765625 -2.28515625 5.09765625 C-2.84765625 3.16015625 -2.84765625 3.16015625 -3.28515625 1.09765625 C-2.28515625 0.09765625 -2.28515625 0.09765625 0 0 Z " fill="#3D3D58" transform="translate(219.28515625,343.90234375)"/>
<path d="M0 0 C3 1 3 1 3.984375 2.92578125 C4.23703125 3.71339844 4.4896875 4.50101563 4.75 5.3125 C5.01296875 6.09238281 5.2759375 6.87226563 5.546875 7.67578125 C6.03298902 10.16921091 5.80665429 11.6181897 5 14 C2.99006295 10.98509443 2.27376659 8.7850073 1.375 5.3125 C1.11460937 4.31863281 0.85421875 3.32476562 0.5859375 2.30078125 C0.39257812 1.54152344 0.19921875 0.78226563 0 0 Z " fill="#7C93FF" transform="translate(266,196)"/>
<path d="M0 0 C0.66 0 1.32 0 2 0 C2.66 1.65 3.32 3.3 4 5 C1.69 5 -0.62 5 -3 5 C-1.625 2.5 -1.625 2.5 0 0 Z " fill="#888899" transform="translate(308,347)"/>
<path d="M0 0 C0.99 0 1.98 0 3 0 C3.99 2.97 4.98 5.94 6 9 C3 8 3 8 2.05078125 6.15234375 C1.80714844 5.42144531 1.56351562 4.69054687 1.3125 3.9375 C1.06113281 3.20402344 0.80976562 2.47054687 0.55078125 1.71484375 C0.36902344 1.14894531 0.18726562 0.58304688 0 0 Z " fill="#EAEEFF" transform="translate(95,236)"/>
<path d="M0 0 C3.91211733 1.15585285 6.8745041 2.35534962 10 5 C9.01 5.495 9.01 5.495 8 6 C5.8359375 5.22265625 5.8359375 5.22265625 3.375 4.0625 C2.55773437 3.68222656 1.74046875 3.30195313 0.8984375 2.91015625 C0.27195313 2.60980469 -0.35453125 2.30945313 -1 2 C-0.67 1.34 -0.34 0.68 0 0 Z " fill="#647FFF" transform="translate(213,154)"/>
<path d="M0 0 C1.5 1.3125 1.5 1.3125 3 3 C3 3.99 3 4.98 3 6 C1.35 6 -0.3 6 -2 6 C-1.125 1.125 -1.125 1.125 0 0 Z " fill="#8B8A9B" transform="translate(183,344)"/>
<path d="M0 0 C1.98 1.65 3.96 3.3 6 5 C5.34 5.66 4.68 6.32 4 7 C2.35 5.02 0.7 3.04 -1 1 C-0.67 0.67 -0.34 0.34 0 0 Z " fill="#F8F9FF" transform="translate(397,217)"/>
</svg>
